<?xml version="1.0" encoding="iso-8859-1"?>
<!-- Generator: Adobe Illustrator 19.0.0, SVG Export Plug-In . SVG Version: 6.00 Build 0)  -->
<svg version="1.1" id="Layer_1" xmlns="http://www.w3.org/2000/svg" xmlns:xlink="http://www.w3.org/1999/xlink" x="0px" y="0px"
	 viewBox="0 0 469.333 469.333" style="enable-background:new 0 0 469.333 469.333;" xml:space="preserve">
<g>
	<g>
		<path d="M437.333,96h-288c-5.888,0-10.667,4.779-10.667,10.667V320c0,5.888,4.779,10.667,10.667,10.667h288
			c17.643,0,32-14.357,32-32V128C469.333,110.357,454.976,96,437.333,96z M448,298.667c0,5.877-4.789,10.667-10.667,10.667H160
			V202.667h288V298.667z M448,160H160v-42.667h277.333c5.877,0,10.667,4.789,10.667,10.667V160z"/>
	</g>
</g>
<g>
	<g>
		<path d="M288,266.667h-74.667c-5.888,0-10.667,4.779-10.667,10.667S207.445,288,213.333,288H288
			c5.888,0,10.667-4.779,10.667-10.667S293.888,266.667,288,266.667z"/>
	</g>
</g>
<g>
	<g>
		<path d="M362.667,266.667h-32c-5.888,0-10.667,4.779-10.667,10.667S324.779,288,330.667,288h32
			c5.888,0,10.667-4.779,10.667-10.667S368.555,266.667,362.667,266.667z"/>
	</g>
</g>
<g>
	<g>
		<path d="M288,74.667c5.888,0,10.667-4.779,10.667-10.667V53.333C298.667,23.925,274.741,0,245.333,0h-192
			C23.925,0,0,23.925,0,53.333V416c0,29.408,23.925,53.333,53.333,53.333h192c29.408,0,53.333-23.925,53.333-53.333v-53.333
			c0-5.888-4.779-10.667-10.667-10.667s-10.667,4.779-10.667,10.667V416c0,17.643-14.357,32-32,32h-192c-17.643,0-32-14.357-32-32
			V53.333c0-17.643,14.357-32,32-32h192c17.643,0,32,14.357,32,32V64C277.333,69.888,282.112,74.667,288,74.667z"/>
	</g>
</g>
<g>
	<g>
		<path d="M224,352H74.667C68.789,352,64,347.211,64,341.333v-256c0-5.877,4.789-10.667,10.667-10.667H224
			c5.888,0,10.667-4.779,10.667-10.667S229.888,53.333,224,53.333H74.667c-17.643,0-32,14.357-32,32v256c0,17.643,14.357,32,32,32
			H224c5.888,0,10.667-4.779,10.667-10.667C234.667,356.779,229.888,352,224,352z"/>
	</g>
</g>
<g>
	<g>
		<circle cx="330.667" cy="234.667" r="10.667"/>
	</g>
</g>
<g>
	<g>
		<circle cx="373.333" cy="234.667" r="10.667"/>
	</g>
</g>
<g>
	<g>
		<circle cx="416" cy="234.667" r="10.667"/>
	</g>
</g>
<g>
	<g>
		<circle cx="144" cy="410.667" r="16"/>
	</g>
</g>
<g>
</g>
<g>
</g>
<g>
</g>
<g>
</g>
<g>
</g>
<g>
</g>
<g>
</g>
<g>
</g>
<g>
</g>
<g>
</g>
<g>
</g>
<g>
</g>
<g>
</g>
<g>
</g>
<g>
</g>
</svg>
