<svg id="Line_cutting_stroke_Ex" height="512" viewBox="0 0 512 512" width="512" xmlns="http://www.w3.org/2000/svg" data-name="Line cutting stroke Ex"><g><g><path d="m408 168h-16v-124a12.0137 12.0137 0 0 0 -12-12h-180v-16h180a28.0314 28.0314 0 0 1 28 28z"/><path d="m120 184h-16v-140a28.0314 28.0314 0 0 1 28-28h52v16h-52a12.0137 12.0137 0 0 0 -12 12z"/><path d="m232 368h48v16h-48z"/><path d="m136 48h16v16h-16z"/><path d="m136 80h16v16h-16z"/><path d="m136 112h16v16h-16z"/><path d="m136 144h16v16h-16z"/><path d="m136 176h16v16h-16z"/><path d="m136 208h16v16h-16z"/><path d="m136 272h16v16h-16z"/><path d="m136 304h16v16h-16z"/><path d="m360 48h16v16h-16z"/><path d="m360 80h16v16h-16z"/><path d="m360 112h16v16h-16z"/><path d="m360 144h16v16h-16z"/><path d="m360 176h16v16h-16z"/><path d="m168 48h16v16h-16z"/><path d="m200 48h16v16h-16z"/><path d="m232 48h16v16h-16z"/><path d="m264 48h16v16h-16z"/><path d="m296 48h16v16h-16z"/><path d="m328 48h16v16h-16z"/></g><path d="m148 464h-92a8 8 0 0 1 -8-8v-12a28.0314 28.0314 0 0 1 28-28h92a8 8 0 0 1 8 8v12a28.0314 28.0314 0 0 1 -28 28zm-84-16h84a12.0137 12.0137 0 0 0 12-12v-4h-84a12.0137 12.0137 0 0 0 -12 12z"/><g><path d="m400 360h32v16h-32z"/><g><path d="m376 328a8 8 0 0 0 -8 8v96a8 8 0 0 0 8 8h80a8 8 0 0 0 8-8v-96a8 8 0 0 0 -8-8zm72 96h-64v-80h64z"/><path d="m400 392h32v16h-32z"/></g></g><g><path d="m496 328v-30a18.02 18.02 0 0 0 -18-18h-22v-22a18.0257 18.0257 0 0 0 -16-17.8893v-8.1107a8 8 0 0 0 8-8v-32a8 8 0 0 0 -8-8h-48a8 8 0 0 0 -8 8v8h-24a7.9986 7.9986 0 0 0 -5.6567 2.3433l-16 16 11.3134 11.3134 13.6568-13.6567h20.6865v8a8 8 0 0 0 8 8v8.1107a18.0257 18.0257 0 0 0 -16 17.8893v22h-22a18.02 18.02 0 0 0 -18 18v102h-128.1107a18.0344 18.0344 0 0 0 -15.8893-15.8894v-22.1106a18.02 18.02 0 0 0 -18-18h-124a18.02 18.02 0 0 0 -18 18v22.1106a18.0259 18.0259 0 0 0 -16 17.8894v22h16v-22a2.002 2.002 0 0 1 2-2h156a2.002 2.002 0 0 1 2 2v76a2.002 2.002 0 0 1 -2 2h-156a2.002 2.002 0 0 1 -2-2v-38h-16v38a18.02 18.02 0 0 0 18 18h444a18.02 18.02 0 0 0 18-18v-134h-16v134a2.002 2.002 0 0 1 -2 2h-124a2.002 2.002 0 0 1 -2-2v-180a2.002 2.002 0 0 1 2-2h124a2.002 2.002 0 0 1 2 2v30zm-160 88v32h-128v-32zm-288-32v-22a2.002 2.002 0 0 1 2-2h124a2.002 2.002 0 0 1 2 2v22zm159.8893 96a18.0988 18.0988 0 0 0 .1107-2v-14h128v14a18.0988 18.0988 0 0 0 .1107 2zm192.1107-280h32v16h-32zm24 32v8h-16v-8zm16 48h-48v-22a2.002 2.002 0 0 1 2-2h44a2.002 2.002 0 0 1 2 2z"/><path d="m52.1611 255.019 23.8023 13.0176 13.0176 23.8023a8 8 0 0 0 14.038 0l.981-1.7937v37.9548h16v-62.131l19.8389-10.85a8 8 0 0 0 0-14.038l-23.8023-13.0176-13.0176-23.8023a8 8 0 0 0 -14.038 0l-13.0176 23.8023-23.8023 13.0176a8 8 0 0 0 0 14.038zm33.5357-14.142a8.004 8.004 0 0 0 3.18-3.18l7.1232-13.0246 7.123 13.0244a8.004 8.004 0 0 0 3.18 3.18l13.0246 7.1232-13.0244 7.123a8.004 8.004 0 0 0 -3.18 3.18l-7.1232 13.0246-7.123-13.0244a8.004 8.004 0 0 0 -3.18-3.18l-13.0246-7.1232z"/></g><path d="m204 189.8994a8.0008 8.0008 0 0 1 -7.019-4.1611l-8.7749-16.0449-16.045-8.7749a8.0005 8.0005 0 0 1 0-14.0381l16.045-8.7749 8.7749-16.045a8 8 0 0 1 14.038 0l8.7749 16.045 16.045 8.7749a8.0005 8.0005 0 0 1 0 14.0381l-16.045 8.7749-8.7749 16.0449a8.0008 8.0008 0 0 1 -7.019 4.1611zm-11.3276-36 5.2671 2.88a8.0037 8.0037 0 0 1 3.18 3.18l2.88 5.2671 2.88-5.2671a8.0037 8.0037 0 0 1 3.18-3.18l5.2671-2.88-5.2671-2.88a8.0029 8.0029 0 0 1 -3.18-3.18l-2.8795-5.2676-2.88 5.2671a8.0029 8.0029 0 0 1 -3.18 3.18z"/></g></svg>