<svg height="512" viewBox="0 0 512 512" width="512" xmlns="http://www.w3.org/2000/svg"><g id="Line_cutting_stroke_EX" data-name="Line cutting stroke EX"><g><path d="m240 448h200a8 8 0 0 0 8-8v-48h-16v40h-192z"/><path d="m464 478a2.002 2.002 0 0 1 -2 2h-222v16h222a18.02 18.02 0 0 0 18-18v-358h-16z"/><path d="m462 16h-316a18.02 18.02 0 0 0 -18 18v134h16v-134a2.002 2.002 0 0 1 2-2h14v136h16v-136h32v54a18.02 18.02 0 0 0 18 18h156a18.02 18.02 0 0 0 18-18v-54h32v344h16v-344h14a2.002 2.002 0 0 1 2 2v70h16v-70a18.02 18.02 0 0 0 -18-18zm-78 70a2.002 2.002 0 0 1 -2 2h-156a2.002 2.002 0 0 1 -2-2v-54h160z"/><path d="m376 152h-16v16h-16v16h16v16h16v-16h16v-16h-16z"/><path d="m398 128h-60a18.02 18.02 0 0 0 -18 18v60a18.02 18.02 0 0 0 18 18h60a18.02 18.02 0 0 0 18-18v-60a18.02 18.02 0 0 0 -18-18zm2 78a2.002 2.002 0 0 1 -2 2h-60a2.002 2.002 0 0 1 -2-2v-60a2.002 2.002 0 0 1 2-2h60a2.002 2.002 0 0 1 2 2z"/><path d="m232 168h72v16h-72z"/><path d="m192 128h112v16h-112z"/><path d="m232 208h72v16h-72z"/><path d="m248 272h96v16h-96z"/><path d="m360 272h56v16h-56z"/><path d="m320 312h96v16h-96z"/><path d="m248 312h56v16h-56z"/><path d="m248 352h96v16h-96z"/><path d="m360 352h56v16h-56z"/><path d="m320 392h96v16h-96z"/><path d="m248 392h56v16h-56z"/><path d="m248 72h112a8 8 0 0 0 8-8v-16h-16v8h-96v-8h-16v16a8 8 0 0 0 8 8z"/><path d="m184 352a8 8 0 0 0 -8-8h-96a8 8 0 0 0 -8 8v40a8 8 0 0 0 8 8h96a8 8 0 0 0 8-8zm-16 32h-80v-24h80z"/><path d="m72 416h56v16h-56z"/><path d="m144 416h40v16h-40z"/><path d="m206 272h-6v-16.1107a18.0257 18.0257 0 0 0 16-17.8893v-36a18.02 18.02 0 0 0 -18-18h-140a18.02 18.02 0 0 0 -18 18v36a18.0257 18.0257 0 0 0 16 17.8893v16.1107h-6a18.02 18.02 0 0 0 -18 18v70h16v-32h160v120h-160v-72h-16v102a18.02 18.02 0 0 0 18 18h156a18.02 18.02 0 0 0 18-18v-188a18.02 18.02 0 0 0 -18-18zm-150-70a2.002 2.002 0 0 1 2-2h140a2.002 2.002 0 0 1 2 2v36a2.002 2.002 0 0 1 -2 2h-140a2.002 2.002 0 0 1 -2-2zm16 54h112v16h-112zm-24 56v-22a2.002 2.002 0 0 1 2-2h156a2.002 2.002 0 0 1 2 2v22zm158 168h-156a2.002 2.002 0 0 1 -2-2v-14h160v14a2.002 2.002 0 0 1 -2 2z"/></g></g></svg>