<?xml version="1.0" standalone="no"?>
<!DOCTYPE svg PUBLIC "-//W3C//DTD SVG 20010904//EN"
 "http://www.w3.org/TR/2001/REC-SVG-20010904/DTD/svg10.dtd">
<svg version="1.0" xmlns="http://www.w3.org/2000/svg"
 width="304.000000pt" height="304.000000pt" viewBox="0 0 304.000000 304.000000"
 preserveAspectRatio="xMidYMid meet">
<metadata>
Created by potrace 1.11, written by Peter Selinger 2001-2013
</metadata>
<g transform="translate(0.000000,304.000000) scale(0.100000,-0.100000)"
fill="#000000" stroke="none">
<path d="M1519 3036 c-2 -2 -47 -7 -99 -10 -52 -3 -106 -8 -120 -11 -14 -3
-36 -7 -50 -10 -14 -2 -40 -7 -59 -10 -19 -3 -38 -8 -43 -11 -4 -3 -16 -7 -25
-9 -79 -15 -300 -112 -396 -173 -71 -45 -177 -125 -177 -134 0 -4 -4 -8 -10
-8 -18 0 -154 -144 -226 -240 -85 -113 -189 -306 -209 -390 -1 -3 -7 -18 -14
-34 -6 -16 -13 -36 -15 -45 -1 -9 -8 -36 -15 -61 -7 -25 -15 -54 -16 -65 -2
-11 -6 -40 -10 -65 -4 -25 -9 -56 -12 -70 -22 -111 -8 -365 29 -505 5 -22 12
-49 14 -60 6 -34 55 -169 66 -182 6 -7 8 -13 5 -13 -15 0 140 -277 173 -310 3
-3 23 -27 45 -55 54 -68 235 -245 251 -245 3 0 17 -11 32 -25 15 -14 30 -25
34 -25 3 0 33 -17 65 -38 80 -53 198 -108 315 -148 54 -18 98 -31 98 -29 0 3
11 0 26 -5 14 -6 39 -12 57 -15 18 -3 43 -7 57 -10 111 -20 269 -25 385 -12
77 8 89 10 190 32 18 4 143 40 170 49 123 41 328 155 440 246 68 55 215 210
268 282 31 42 57 79 57 82 0 3 15 29 34 58 33 53 83 154 101 208 1 3 7 17 13
32 12 28 39 117 48 159 51 226 57 416 20 624 -82 451 -379 859 -776 1066 -36
18 -68 37 -71 42 -3 5 -10 9 -15 9 -12 1 -34 8 -69 23 -101 44 -304 90 -435
100 -47 3 -94 8 -106 10 -12 3 -23 3 -25 1z"/>
</g>
</svg>
